PathFileType	4	(X/Y/Z)	 s07c0101.trc
DataRate	CameraRate	NumFrames	NumMarkers	Units	OrigDataRate	OrigDataStartFrame	OrigNumFrames
200	200	6	48	mm	200	1	2000
Frame#	Time	racr			lacr			c7			jug			rlel			rdr			llel			ldr			s2			lic			ric			lasi			rasi			rpsi			lpsi			rgt			lgt			rth1			rth2			rth3			rth4			rlfc			rmfc			rsh1			rsh2			rsh3			rsh4			rlmal			rcal			rtoe			rmt5			lth1			lth2			lth4			lth3			llfc			lmfc			lsh1			lsh2			lsh3			lsh4			llmal			lcal			ltoe			lmt5			SBIKE			LBIKE			RBIKE			
		X1	Y1	Z1	X2	Y2	Z2	X3	Y3	Z3	X4	Y4	Z4	X5	Y5	Z5	X6	Y6	Z6	X7	Y7	Z7	X8	Y8	Z8	X9	Y9	Z9	X10	Y10	Z10	X11	Y11	Z11	X12	Y12	Z12	X13	Y13	Z13	X14	Y14	Z14	X15	Y15	Z15	X16	Y16	Z16	X17	Y17	Z17	X18	Y18	Z18	X19	Y19	Z19	X20	Y20	Z20	X21	Y21	Z21	X22	Y22	Z22	X23	Y23	Z23	X24	Y24	Z24	X25	Y25	Z25	X26	Y26	Z26	X27	Y27	Z27	X28	Y28	Z28	X29	Y29	Z29	X30	Y30	Z30	X31	Y31	Z31	X32	Y32	Z32	X33	Y33	Z33	X34	Y34	Z34	X35	Y35	Z35	X36	Y36	Z36	X37	Y37	Z37	X38	Y38	Z38	X39	Y39	Z39	X40	Y40	Z40	X41	Y41	Z41	X42	Y42	Z42	X43	Y43	Z43	X44	Y44	Z44	X45	Y45	Z45	X46	Y46	Z46	X47	Y47	Z47	X48	Y48	Z48	
1	0.0050	447.159205	1460.835810	-86.736281	443.313539	1445.479551	-358.657047	405.872544	1493.848656	-225.497374	382.363836	1353.363108	-220.790540	555.126391	1145.231230	-1.700625	724.490337	906.346851	-59.189583	543.768207	1135.947778	-426.638141	731.374191	904.246092	-387.801041	-140.755489	1214.006062	-238.180363	27.042252	1265.374307	-374.534513	25.126449	1244.994645	-82.836507	58.946720	1184.836921	-348.074330	38.893615	1191.671058	-101.792634	-114.568577	1251.594383	-184.871836	-99.841658	1262.701773	-292.527925	-33.036353	1131.767726	-38.276345	-31.032395	1109.000210	-409.315586	97.398276	1075.411821	-32.793206	184.549479	1066.966895	-40.833632	256.663702	1020.643444	-36.760801	194.921389	1097.664450	-58.622283	382.878027	942.194417	-65.247824	387.038722	925.325163	-161.267663	336.768262	804.354607	-48.460501	328.083952	717.711926	-70.363261	279.984137	645.525684	-70.621540	345.647667	717.523043	-106.359692	225.908956	523.016815	-79.193071	156.848772	493.882815	-110.844631	438.877090	424.488768	-116.314172	354.898616	403.809016	-47.837647	32.301503	1004.179244	-420.071807	103.978713	953.999222	-424.921059	132.518194	975.284279	-414.982892	140.904690	871.434315	-422.468452	234.131546	719.493103	-393.168560	227.649419	703.199326	-295.816773	146.631690	596.448982	-411.851566	114.671755	519.377132	-389.848275	46.159773	461.109061	-396.307935	120.059956	520.890764	-348.613198	-40.683950	360.609421	-389.283696	-117.646310	347.979778	-356.536548	144.911480	226.573599	-353.517703	61.016559	232.876116	-416.856409	-260.800679	980.311886	-229.729146	-76.175377	83.465896	-435.162342	-81.748847	79.213656	-37.604779	
2	0.0100	447.156012	1460.809800	-86.730508	443.285308	1445.478315	-358.675417	405.861512	1493.840961	-225.471112	382.328940	1353.365299	-220.777719	555.122663	1145.229548	-1.679860	724.466018	906.366123	-59.210518	543.777483	1135.944064	-426.634539	731.373835	904.249964	-387.793783	-140.765912	1214.014017	-238.172780	26.995154	1265.381005	-374.516124	25.111917	1245.045183	-82.823569	58.960432	1184.854432	-348.095909	38.869595	1191.669368	-101.747501	-114.569223	1251.576689	-184.862698	-99.833453	1262.718784	-292.524710	-33.052168	1131.764263	-38.282779	-31.041961	1109.017984	-409.321424	97.391284	1075.389773	-32.791528	184.540674	1066.958510	-40.829144	256.645163	1020.632646	-36.741589	194.923752	1097.639848	-58.626031	382.868305	942.177318	-65.251366	387.041435	925.320389	-161.243938	336.757636	804.345474	-48.465697	328.083917	717.708679	-70.366592	279.973077	645.530447	-70.610308	345.641162	717.512358	-106.365183	225.901383	523.020025	-79.201836	156.843410	493.870399	-110.815804	438.872193	424.494073	-116.309646	354.886227	403.801007	-47.844894	32.307709	1004.202000	-420.080319	103.997343	954.015807	-424.917026	132.521203	975.304148	-414.994946	140.918856	871.443452	-422.466975	234.139445	719.503374	-393.166105	227.650708	703.192465	-295.811099	146.636779	596.458796	-411.864737	114.690431	519.384626	-389.842479	46.174049	461.120777	-396.329233	120.077056	520.884258	-348.607205	-40.675702	360.624438	-389.284607	-117.640164	347.992263	-356.526474	144.898313	226.556954	-353.512910	61.010441	232.869923	-416.857357	-260.801547	980.306267	-229.718740	-76.180482	83.464242	-435.159112	-81.737349	79.186073	-37.599167	
3	0.0150	447.166118	1460.805814	-86.707716	443.280613	1445.460290	-358.671319	405.853820	1493.833018	-225.477265	382.331100	1353.370594	-220.777661	555.105461	1145.225311	-1.637321	724.473377	906.357909	-59.188585	543.767039	1135.940328	-426.629941	731.393834	904.264308	-387.788486	-140.759747	1214.015764	-238.158373	27.013143	1265.403759	-374.521087	25.112745	1245.040319	-82.813153	58.955479	1184.886374	-348.064570	38.881013	1191.683332	-101.738003	-114.555703	1251.585716	-184.840455	-99.841856	1262.726107	-292.509038	-33.038360	1131.756148	-38.272109	-31.026631	1109.017852	-409.307224	97.382675	1075.378347	-32.762959	184.544493	1066.946061	-40.822668	256.639665	1020.614119	-36.742347	194.931827	1097.629849	-58.617046	382.875978	942.167115	-65.245431	387.034351	925.325791	-161.272852	336.755191	804.326578	-48.463975	328.082273	717.697596	-70.358460	279.957843	645.519483	-70.613754	345.640041	717.493492	-106.326101	225.897397	522.996299	-79.195504	156.846177	493.859591	-110.825583	438.874845	424.493220	-116.306886	354.876543	403.791598	-47.844723	32.324605	1004.207517	-420.070392	104.001426	954.023426	-424.906553	132.533188	975.315553	-414.992504	140.939996	871.439458	-422.461878	234.142043	719.511732	-393.175985	227.668448	703.191784	-295.819971	146.644935	596.461509	-411.856260	114.694192	519.384838	-389.837920	46.179417	461.120619	-396.306345	120.080661	520.874914	-348.609069	-40.675091	360.627766	-389.279047	-117.634597	347.999263	-356.533283	144.901537	226.569643	-353.501776	61.017518	232.881225	-416.839994	-260.796574	980.314220	-229.724171	-76.183216	83.466835	-435.166260	-81.758893	79.214986	-37.594987	
4	0.0200	447.137256	1460.778229	-86.708700	443.276404	1445.449556	-358.672109	405.869658	1493.806904	-225.470832	382.327397	1353.369245	-220.758999	554.873468	1145.807989	-1.127737	724.450101	906.364742	-59.178789	543.760566	1135.935687	-426.623997	731.542988	908.533576	-394.221417	-140.757061	1214.010593	-238.151186	26.781568	1265.431249	-374.641045	24.728594	1245.003937	-82.900553	58.985360	1184.914393	-348.085537	38.866311	1191.701992	-101.707179	-114.561480	1251.572687	-184.825922	-99.827512	1262.722875	-292.503217	-33.038636	1131.755610	-38.276635	-30.669350	1109.088944	-408.613978	97.513033	1075.226703	-32.738925	184.538666	1066.929742	-40.818360	256.520954	1020.501768	-36.778685	194.929934	1097.605540	-58.610228	382.936867	942.085150	-65.217263	385.975367	926.944500	-166.941424	336.745196	804.322059	-48.447891	328.041336	717.632593	-70.328264	280.006553	645.383591	-70.588125	345.659388	717.360332	-106.320806	225.540424	523.607425	-78.382152	156.858961	493.840550	-110.842670	438.697485	424.986378	-115.892061	355.001699	403.659731	-47.863617	32.339167	1004.206725	-420.071352	104.345413	952.971624	-424.165179	132.560607	975.433981	-415.210040	140.950041	871.444687	-422.472477	234.146168	719.500569	-393.157455	227.682901	703.183314	-295.803867	146.632360	596.463326	-411.851476	114.788122	519.269630	-389.896729	46.001536	461.354473	-396.230026	120.970050	520.831850	-348.370406	-40.674878	360.633911	-389.281404	-117.587321	348.067337	-356.491216	144.908281	226.581445	-353.507545	60.996175	232.888852	-416.852235	-260.898200	980.333460	-230.102452	-76.183444	83.452285	-435.147941	-81.755676	79.194475	-37.597275	
5	0.0250	447.116323	1460.969565	-86.517823	436.721891	1441.312784	-345.242377	405.892355	1493.822524	-225.473391	390.811144	1352.146156	-213.600229	554.912611	1145.739363	-1.096904	724.690665	906.479779	-59.020429	545.515888	1133.793574	-420.900352	731.543969	908.552410	-394.263731	-140.684751	1214.045632	-238.245409	21.360513	1259.665453	-360.062218	24.672374	1245.220905	-82.866121	51.460009	1180.321523	-335.039368	39.101185	1191.684703	-101.347894	-114.548376	1251.729453	-184.730501	-99.800901	1262.788302	-292.640393	-33.147801	1131.974742	-38.167776	-29.361002	1106.761425	-402.593176	97.360436	1075.409729	-32.729385	184.467429	1067.063148	-40.815960	256.744211	1020.594212	-36.607059	194.948343	1097.846208	-58.583378	382.946750	942.160590	-65.118876	385.141528	924.374367	-161.068178	336.597315	804.495565	-48.387329	331.129740	716.759359	-65.165134	280.241925	645.403623	-70.488829	347.546804	715.233728	-100.345881	225.555546	523.575715	-78.434841	156.805846	493.865158	-110.797616	438.635252	424.885130	-115.960325	354.734832	403.899342	-47.756737	32.421034	1004.303672	-419.961958	105.668514	950.396576	-418.444817	132.597901	975.468677	-415.290669	142.481352	868.740498	-415.596637	235.523152	716.426669	-386.846318	229.715562	702.888373	-292.092551	148.653125	594.120302	-406.972975	117.175814	517.183766	-385.103070	46.365643	461.094734	-395.470485	120.566265	521.179102	-348.387734	-38.129726	355.157449	-381.002166	-117.647280	348.098543	-356.478443	146.388093	222.037772	-346.692391	63.667639	227.182471	-408.676935	-260.888143	980.295073	-230.015586	-75.968857	83.377031	-434.959261	-81.935290	79.360200	-37.769820	
6	0.0300	447.185162	1461.008709	-86.435000	443.466968	1445.835175	-359.018337	405.955522	1493.721941	-225.411888	382.516900	1353.578253	-220.972929	554.682095	1145.533311	-1.417857	724.767737	906.392528	-59.351066	543.812031	1136.168663	-426.929251	731.515826	908.648536	-394.219588	-140.649712	1214.005914	-238.228153	26.784175	1265.432266	-374.651414	24.676579	1245.258655	-82.907106	58.927491	1185.054222	-348.004897	38.862768	1191.816864	-101.755001	-114.593561	1251.708837	-184.749583	-99.767640	1262.772813	-292.502432	-33.143482	1131.957981	-38.159749	-31.046834	1109.009846	-409.382043	97.347335	1075.392410	-32.718190	184.477573	1067.035900	-40.795430	256.419761	1020.653958	-36.726697	194.908076	1097.628600	-58.663865	382.983041	942.112331	-65.149540	384.485839	924.262427	-161.286855	336.613727	804.452414	-48.379138	327.883961	717.790324	-70.373141	279.795594	645.588329	-70.493719	345.544443	717.574402	-106.010265	225.645621	523.421712	-78.667004	156.889053	493.733395	-110.843964	438.621152	424.907090	-115.899298	354.796154	403.882749	-47.754583	32.356606	1004.244229	-420.087034	104.352210	953.011531	-424.163775	132.708779	975.641928	-415.646931	140.926821	871.543915	-422.616812	234.129495	719.582046	-393.186927	227.508353	703.479643	-295.731969	146.578071	596.561200	-411.944965	114.709407	519.416020	-389.879898	46.017017	461.294992	-396.421856	120.783243	521.025815	-348.235131	-40.744135	360.641574	-389.217024	-117.721799	347.985635	-356.391309	144.853533	226.566200	-353.468100	60.996225	232.938706	-416.861554	-260.950288	980.333049	-229.982358	-76.303234	83.284406	-435.305809	-81.909964	79.399404	-37.722677	
